<mxfile host="app.diagrams.net" modified="2023-03-31T08:40:47.544Z" agent="Mozilla/5.0 (Windows NT 10.0; Win64; x64) AppleWebKit/537.36 (KHTML, like Gecko) Chrome/111.0.0.0 Safari/537.36" version="21.1.2" etag="Doan73VUlz2ZYGJOYNVC" type="github">
  <diagram name="Page-1" id="mNgvImvYsgW5lXgKf84y">
    <mxGraphModel>
      <root>
        <mxCell id="0" />
        <mxCell id="1" parent="0" />
      </root>
    </mxGraphModel>
  </diagram>
</mxfile>
